<svg xmlns="http://www.w3.org/2000/svg" xmlns:xlink="http://www.w3.org/1999/xlink" width="115" zoomAndPan="magnify" viewBox="0 0 86.25 30.000001" height="40" preserveAspectRatio="xMidYMid meet" version="1.0"><defs><g/><clipPath id="977c45ad68"><path d="M 16.929688 0 L 34 0 L 34 16.695312 L 16.929688 16.695312 Z M 16.929688 0 " clip-rule="nonzero"/></clipPath><clipPath id="01daac5708"><path d="M 34 0 L 51 0 L 51 16.695312 L 34 16.695312 Z M 34 0 " clip-rule="nonzero"/></clipPath><clipPath id="a6260bc5a0"><path d="M 52.21875 0.179688 L 68.460938 0.179688 L 68.460938 16.691406 L 52.21875 16.691406 Z M 52.21875 0.179688 " clip-rule="nonzero"/></clipPath><clipPath id="125905f274"><path d="M 18 14 L 26 14 L 26 16.695312 L 18 16.695312 Z M 18 14 " clip-rule="nonzero"/></clipPath><clipPath id="c67b4bf64c"><path d="M 21 5 L 30 5 L 30 16.695312 L 21 16.695312 Z M 21 5 " clip-rule="nonzero"/></clipPath><clipPath id="b881011468"><path d="M 41 3 L 47 3 L 47 16.695312 L 41 16.695312 Z M 41 3 " clip-rule="nonzero"/></clipPath><clipPath id="a0404b0f5c"><path d="M 52 4 L 68.464844 4 L 68.464844 12 L 52 12 Z M 52 4 " clip-rule="nonzero"/></clipPath></defs><g clip-path="url(#977c45ad68)"><path fill="#009ccc" d="M 32.582031 12.875 C 32.539062 12.867188 32.480469 12.703125 32.496094 12.625 C 32.535156 12.410156 32.558594 12.15625 32.6875 12.003906 C 32.898438 11.761719 32.773438 11.578125 32.703125 11.355469 C 32.652344 11.1875 32.65625 11 32.652344 10.824219 C 32.644531 10.664062 32.652344 10.5 32.671875 10.339844 C 32.679688 10.253906 32.726562 10.175781 32.753906 10.101562 C 32.484375 10.09375 32.472656 10.09375 32.542969 9.800781 C 32.632812 9.421875 32.550781 9.121094 32.203125 8.910156 C 32.242188 8.75 32.28125 8.601562 32.328125 8.410156 C 32.289062 8.375 32.199219 8.292969 32.082031 8.195312 C 32.226562 8.117188 32.339844 8.058594 32.453125 7.996094 C 32.441406 7.96875 32.425781 7.925781 32.40625 7.886719 C 32.328125 7.757812 32.175781 7.632812 32.179688 7.507812 C 32.1875 7.289062 32.308594 7.074219 32.339844 6.851562 C 32.417969 6.308594 32.472656 5.765625 32.535156 5.21875 C 32.539062 5.191406 32.527344 5.15625 32.511719 5.125 C 32.414062 4.902344 32.503906 4.667969 32.738281 4.597656 C 32.71875 4.367188 32.699219 4.128906 32.683594 3.910156 C 32.746094 3.863281 32.832031 3.804688 33.007812 3.675781 C 32.6875 3.589844 32.457031 3.527344 32.296875 3.484375 C 32.242188 3.289062 32.199219 3.121094 32.144531 2.929688 C 32.203125 2.902344 32.304688 2.859375 32.445312 2.796875 C 32.375 2.230469 32.300781 1.652344 32.234375 1.097656 C 31.800781 1.015625 31.351562 0.929688 30.914062 0.847656 C 30.6875 1.242188 30.695312 1.230469 30.3125 1.019531 C 30.199219 0.957031 30.042969 0.984375 29.90625 0.96875 C 29.886719 1.003906 29.867188 1.039062 29.847656 1.070312 C 29.664062 0.761719 29.480469 0.453125 29.292969 0.140625 C 29.253906 0.28125 29.214844 0.433594 29.171875 0.582031 C 29.140625 0.578125 29.113281 0.570312 29.085938 0.566406 C 29.074219 0.472656 29.082031 0.375 29.050781 0.285156 C 29.03125 0.226562 28.9375 0.125 28.925781 0.132812 C 28.65625 0.269531 28.363281 0.382812 28.148438 0.582031 C 28.019531 0.703125 27.964844 0.71875 27.832031 0.652344 C 27.695312 0.589844 27.539062 0.480469 27.414062 0.507812 C 27.105469 0.578125 26.8125 0.71875 26.554688 0.8125 C 26.4375 0.757812 26.3125 0.648438 26.203125 0.660156 C 25.902344 0.695312 25.65625 0.882812 25.308594 0.617188 C 25.117188 0.46875 24.632812 0.371094 24.453125 0.730469 C 24.238281 0.675781 24.066406 0.578125 23.917969 0.605469 C 23.742188 0.640625 23.585938 0.785156 23.453125 0.863281 C 23.164062 0.628906 22.84375 0.550781 22.496094 0.515625 C 22.097656 0.472656 21.699219 0.421875 21.304688 0.347656 C 21.105469 0.308594 20.949219 0.296875 20.820312 0.492188 C 20.730469 0.632812 20.617188 0.757812 20.566406 0.824219 C 20.535156 1.066406 20.511719 1.253906 20.488281 1.433594 C 20.113281 1.394531 20.199219 1.160156 20.246094 0.957031 C 19.222656 0.558594 18.152344 0.699219 17.105469 0.539062 C 17.074219 0.996094 17.042969 1.441406 17.011719 1.882812 C 17.152344 1.914062 17.246094 1.933594 17.351562 1.953125 C 17.3125 2.144531 17.507812 2.433594 17.109375 2.421875 C 17.34375 2.828125 17.34375 2.828125 17.207031 2.902344 C 17.207031 3.128906 17.234375 3.320312 17.195312 3.492188 C 17.164062 3.640625 17.050781 3.769531 16.933594 3.972656 C 17.273438 3.910156 17.464844 4.066406 17.40625 4.230469 C 17.222656 4.789062 17.230469 5.351562 17.390625 5.914062 C 17.449219 6.117188 17.574219 6.347656 17.523438 6.519531 C 17.457031 6.746094 17.242188 6.929688 17.09375 7.132812 C 17.195312 7.339844 17.285156 7.527344 17.382812 7.71875 C 17.355469 7.730469 17.257812 7.761719 17.222656 7.773438 C 17.183594 8.199219 17.148438 8.578125 17.113281 8.992188 L 17.152344 9.707031 C 17.101562 9.75 17.050781 9.796875 17.003906 9.859375 C 17.070312 9.886719 17.121094 9.917969 17.167969 9.957031 L 17.253906 11.398438 C 17.300781 12.148438 17.386719 12.890625 17.070312 13.589844 C 16.980469 13.785156 17.03125 13.828125 17.210938 13.847656 C 17.277344 13.855469 17.34375 13.898438 17.410156 13.925781 C 17.246094 14.226562 17.246094 14.226562 17.355469 14.84375 C 17.449219 14.90625 17.539062 14.988281 17.546875 15.078125 C 17.566406 15.382812 17.554688 15.691406 17.554688 16.027344 C 18.109375 16.027344 18.632812 16.054688 19.15625 16.023438 C 19.644531 15.992188 20.128906 15.902344 20.613281 15.839844 C 20.617188 15.871094 20.621094 15.902344 20.625 15.929688 C 20.550781 15.953125 20.472656 15.972656 20.332031 16.011719 C 21.109375 16.011719 21.8125 16.011719 22.515625 16.011719 C 22.546875 15.929688 22.578125 15.847656 22.574219 15.859375 C 22.734375 15.925781 22.847656 16.015625 22.964844 16.023438 C 23.371094 16.039062 23.777344 16.042969 24.179688 16.023438 C 24.414062 16.011719 24.644531 15.953125 24.863281 15.914062 C 25.035156 15.960938 25.222656 16.007812 25.429688 16.066406 L 25.75 15.980469 C 25.949219 16.070312 26.167969 16 26.339844 16.023438 C 26.425781 15.917969 26.480469 15.835938 26.550781 15.769531 C 26.566406 15.757812 26.636719 15.808594 26.699219 15.835938 C 26.644531 15.90625 26.605469 15.953125 26.558594 16.011719 C 26.644531 16.023438 26.722656 16.035156 26.871094 16.058594 C 26.671875 16.191406 27.542969 16.441406 27.542969 16.390625 C 27.527344 16.09375 27.765625 16.082031 27.9375 16.042969 C 28.121094 15.996094 28.308594 16.050781 28.390625 16.273438 C 28.496094 16.546875 28.75 16.640625 29.03125 16.589844 C 29.640625 16.472656 30.253906 16.324219 30.867188 16.3125 C 31.542969 16.300781 32.21875 16.425781 32.957031 16.492188 C 32.976562 16.28125 32.90625 12.914062 32.582031 12.875 " fill-opacity="1" fill-rule="nonzero"/></g><g clip-path="url(#01daac5708)"><path fill="#80a300" d="M 50.832031 13.988281 C 50.753906 13.597656 50.617188 13.214844 50.492188 12.835938 C 50.480469 12.796875 50.371094 12.800781 50.335938 12.761719 C 50.28125 12.699219 50.210938 12.617188 50.199219 12.550781 L 50.195312 12.511719 L 50.320312 11.996094 C 50.339844 11.949219 50.367188 11.902344 50.402344 11.867188 C 50.582031 11.6875 50.546875 11.507812 50.460938 11.390625 L 50.347656 11.132812 C 50.269531 10.789062 50.449219 10.425781 50.347656 10.085938 C 50.34375 10.074219 50.445312 10.027344 50.523438 9.980469 C 50.191406 9.953125 50.179688 9.949219 50.25 9.648438 C 50.320312 9.320312 50.257812 9.054688 49.996094 8.839844 C 49.886719 8.753906 49.949219 8.410156 50.078125 8.316406 C 50.035156 8.28125 49.988281 8.242188 49.933594 8.199219 L 50.164062 7.851562 L 49.910156 7.40625 C 49.910156 7.398438 49.910156 7.394531 49.90625 7.390625 C 49.902344 7.152344 50.019531 6.910156 50.050781 6.664062 C 50.109375 6.21875 50.148438 5.769531 50.179688 5.324219 C 50.195312 5.066406 50.179688 4.808594 50.179688 4.542969 C 50.269531 4.519531 50.347656 4.503906 50.445312 4.476562 C 50.429688 4.242188 50.414062 4.023438 50.398438 3.78125 C 50.441406 3.75 50.53125 3.679688 50.703125 3.550781 C 50.394531 3.460938 50.164062 3.398438 50 3.351562 C 49.949219 3.167969 49.90625 3.011719 49.851562 2.8125 C 49.90625 2.785156 50.011719 2.734375 50.144531 2.667969 C 50.078125 2.105469 50.007812 1.53125 49.9375 0.976562 C 49.511719 0.894531 49.058594 0.804688 48.621094 0.714844 C 48.398438 1.128906 48.398438 1.128906 48.027344 0.894531 C 47.882812 0.800781 47.722656 0.652344 47.628906 1.042969 C 47.402344 0.679688 47.207031 0.367188 47.015625 0.0585938 C 46.964844 0.1875 46.90625 0.320312 46.851562 0.460938 C 46.757812 0.269531 46.695312 0.136719 46.628906 0 C 46.367188 0.132812 46.027344 0.207031 45.867188 0.417969 C 45.710938 0.625 45.632812 0.558594 45.480469 0.503906 C 45.339844 0.457031 45.179688 0.367188 45.054688 0.398438 C 44.765625 0.472656 44.488281 0.609375 44.3125 0.679688 C 44.101562 0.613281 43.941406 0.507812 43.8125 0.539062 C 43.550781 0.605469 43.292969 0.855469 43.082031 0.457031 C 43.082031 0.449219 43.0625 0.453125 43.050781 0.453125 C 42.722656 0.484375 42.335938 0.246094 42.109375 0.679688 C 41.714844 0.25 41.433594 0.59375 41.171875 0.75 C 40.882812 0.5 40.546875 0.375 40.21875 0.398438 C 39.773438 0.433594 39.363281 0.371094 38.960938 0.214844 C 38.753906 0.136719 38.632812 0.226562 38.519531 0.382812 C 38.421875 0.519531 38.316406 0.648438 38.214844 0.78125 C 38.234375 0.777344 38.253906 0.773438 38.269531 0.769531 C 38.246094 0.949219 38.21875 1.128906 38.191406 1.316406 C 37.816406 1.285156 37.90625 1.042969 37.953125 0.835938 C 36.929688 0.4375 35.867188 0.574219 34.8125 0.417969 C 34.777344 0.890625 34.746094 1.316406 34.714844 1.769531 C 34.960938 1.765625 35.121094 1.84375 35.054688 2.09375 C 35.03125 2.191406 34.9375 2.269531 34.839844 2.40625 C 34.851562 2.492188 35.289062 2.664062 34.890625 2.789062 C 34.890625 3.039062 34.96875 3.378906 34.875 3.433594 C 34.671875 3.554688 34.75 3.679688 34.746094 3.726562 C 34.921875 3.835938 35.050781 3.917969 35.164062 3.992188 C 34.898438 4.535156 35 5.082031 35.023438 5.617188 C 35.035156 5.808594 35.035156 6.066406 35.152344 6.171875 C 35.160156 6.179688 35.167969 6.1875 35.175781 6.195312 L 35.117188 6.492188 C 34.777344 6.832031 34.800781 7.375 35.171875 7.574219 C 35.058594 7.613281 34.960938 7.640625 34.945312 7.648438 C 34.871094 8.226562 34.804688 8.753906 34.734375 9.277344 C 34.851562 9.304688 34.949219 9.328125 35.105469 9.367188 C 34.9375 9.515625 34.8125 9.625 34.683594 9.738281 C 34.9375 9.863281 35.074219 9.988281 35.015625 10.324219 C 34.941406 10.726562 34.980469 11.152344 34.984375 11.570312 C 34.988281 12.140625 35.0625 12.71875 34.851562 13.273438 C 34.703125 13.671875 34.707031 13.671875 35.160156 13.828125 C 34.738281 14.085938 34.992188 14.421875 35.015625 14.71875 C 35.082031 14.734375 35.195312 14.742188 35.195312 14.761719 C 35.234375 15.128906 35.261719 15.496094 35.292969 15.898438 C 37.296875 15.898438 39.285156 15.898438 41.269531 15.898438 L 46.097656 16.152344 C 46.097656 16.160156 46.101562 16.164062 46.101562 16.171875 C 46.191406 16.476562 46.4375 16.511719 46.671875 16.484375 C 47.074219 16.429688 47.472656 16.316406 47.871094 16.246094 C 48.394531 16.15625 48.917969 16.078125 49.425781 16.335938 C 49.386719 16.386719 49.355469 16.429688 49.308594 16.496094 C 49.910156 16.269531 49.910156 16.269531 50.652344 16.441406 C 50.671875 16.234375 50.695312 16.035156 50.714844 15.832031 C 50.722656 15.75 50.714844 15.660156 50.734375 15.578125 C 50.785156 15.386719 50.890625 15.203125 50.894531 15.011719 C 50.90625 14.671875 50.894531 14.320312 50.832031 13.988281 " fill-opacity="1" fill-rule="nonzero"/></g><g clip-path="url(#a6260bc5a0)"><path fill="#ffaa00" d="M 68.445312 14.839844 C 68.40625 14.492188 68.394531 14.140625 68.371094 13.789062 C 68.347656 13.796875 68.320312 13.808594 68.292969 13.816406 C 68.246094 13.707031 68.1875 13.597656 68.152344 13.480469 C 68.074219 13.242188 68.160156 12.910156 67.722656 12.871094 C 67.789062 12.570312 67.769531 12.207031 67.941406 12.027344 C 68.117188 11.832031 68.089844 11.699219 68.007812 11.554688 C 67.832031 11.246094 67.832031 10.9375 67.902344 10.609375 C 67.914062 10.542969 67.886719 10.464844 67.902344 10.398438 C 67.925781 10.300781 67.976562 10.210938 68.019531 10.109375 C 67.878906 10.09375 67.621094 10.199219 67.789062 9.832031 C 67.898438 9.582031 67.835938 9.269531 67.609375 9.0625 C 67.375 8.851562 67.46875 8.671875 67.621094 8.476562 C 67.535156 8.410156 67.453125 8.34375 67.324219 8.246094 C 67.476562 8.175781 67.597656 8.117188 67.71875 8.0625 C 67.664062 7.960938 67.582031 7.851562 67.546875 7.726562 C 67.496094 7.542969 67.441406 7.34375 67.460938 7.160156 C 67.492188 6.886719 67.601562 6.621094 67.640625 6.34375 C 67.699219 5.945312 67.722656 5.546875 67.765625 5.140625 C 67.75 5.136719 67.703125 5.128906 67.660156 5.117188 C 67.695312 4.972656 67.691406 4.804688 67.769531 4.710938 C 68.035156 4.398438 68.0625 4.253906 67.863281 3.964844 C 67.957031 3.898438 68.054688 3.828125 68.226562 3.707031 C 67.90625 3.617188 67.683594 3.554688 67.523438 3.507812 C 67.476562 3.308594 67.4375 3.144531 67.394531 2.964844 C 67.765625 2.855469 67.722656 2.519531 67.679688 2.230469 C 67.625 1.867188 67.507812 1.511719 67.410156 1.125 C 67.023438 1.046875 66.582031 0.957031 66.175781 0.875 C 66.074219 1.015625 65.980469 1.140625 65.902344 1.253906 C 65.65625 1.117188 65.449219 1.007812 65.230469 0.890625 C 65.21875 0.996094 65.214844 1.054688 65.210938 1.113281 C 65.179688 1.121094 65.152344 1.132812 65.121094 1.144531 C 64.933594 0.832031 64.746094 0.519531 64.5625 0.21875 C 64.515625 0.339844 64.460938 0.476562 64.410156 0.613281 C 64.289062 0.101562 64.269531 0.0976562 63.828125 0.34375 C 63.691406 0.421875 63.53125 0.457031 63.367188 0.515625 C 63.347656 0.769531 63.320312 0.78125 63.070312 0.683594 C 62.914062 0.621094 62.734375 0.515625 62.59375 0.546875 C 62.304688 0.613281 62.035156 0.761719 61.746094 0.882812 C 61.621094 0.496094 61.371094 0.695312 61.148438 0.78125 C 60.9375 0.863281 60.742188 0.933594 60.6875 0.597656 C 60.351562 0.789062 59.898438 0.324219 59.660156 0.847656 C 59.375 0.558594 59.25 0.570312 58.703125 0.898438 C 58.445312 0.6875 58.15625 0.578125 57.851562 0.582031 C 57.414062 0.585938 56.992188 0.570312 56.574219 0.402344 C 56.414062 0.335938 56.183594 0.300781 56.054688 0.542969 C 55.984375 0.679688 55.871094 0.792969 55.832031 0.839844 C 55.785156 1.09375 55.75 1.285156 55.710938 1.472656 C 55.421875 1.410156 55.332031 1.28125 55.527344 1.035156 C 54.523438 0.5 53.425781 0.824219 52.34375 0.539062 C 52.320312 1.054688 52.296875 1.503906 52.277344 1.953125 C 52.421875 1.976562 52.523438 1.996094 52.625 2.011719 C 52.621094 2.234375 52.691406 2.46875 52.34375 2.480469 C 52.441406 2.613281 52.507812 2.703125 52.578125 2.796875 C 52.542969 2.804688 52.507812 2.8125 52.472656 2.820312 C 52.480469 2.960938 52.496094 3.105469 52.492188 3.246094 C 52.484375 3.363281 52.464844 3.574219 52.429688 3.578125 C 52.117188 3.625 52.285156 3.851562 52.234375 4.019531 C 52.339844 3.984375 52.417969 3.957031 52.488281 3.933594 C 52.628906 4.085938 52.648438 4.207031 52.601562 4.429688 C 52.511719 4.847656 52.445312 5.328125 52.566406 5.71875 C 52.710938 6.199219 52.707031 6.601562 52.476562 7.023438 C 52.332031 7.292969 52.425781 7.585938 52.71875 7.742188 C 52.59375 7.765625 52.496094 7.785156 52.460938 7.792969 C 52.402344 8.375 52.347656 8.914062 52.292969 9.46875 C 52.417969 9.5 52.503906 9.519531 52.632812 9.546875 C 52.476562 9.679688 52.367188 9.777344 52.238281 9.882812 C 52.523438 10.042969 52.625 10.234375 52.523438 10.5625 C 52.453125 10.796875 52.496094 11.066406 52.492188 11.316406 C 52.492188 12.019531 52.660156 12.726562 52.394531 13.414062 C 52.351562 13.527344 52.261719 13.683594 52.304688 13.761719 C 52.351562 13.859375 52.519531 13.894531 52.667969 13.976562 C 52.375 14.21875 52.433594 14.511719 52.558594 14.808594 C 52.589844 14.890625 52.679688 14.957031 52.695312 15.039062 C 52.757812 15.363281 52.800781 15.691406 52.855469 16.042969 C 53.742188 16.042969 54.625 16.042969 55.503906 16.042969 C 56.898438 16.042969 58.292969 16.039062 59.6875 16.050781 C 59.800781 16.054688 59.917969 16.171875 60.050781 16.25 C 60.296875 15.953125 60.648438 15.929688 60.847656 16.253906 C 61.199219 15.875 61.632812 16.113281 62.023438 16.042969 C 62.035156 16.074219 62.046875 16.105469 62.054688 16.136719 C 61.90625 16.234375 61.753906 16.332031 61.601562 16.429688 C 61.628906 16.449219 61.660156 16.488281 61.679688 16.480469 C 61.996094 16.398438 62.308594 16.335938 62.597656 16.585938 C 62.617188 16.601562 62.800781 16.488281 62.792969 16.457031 C 62.742188 16.132812 63.007812 16.140625 63.175781 16.09375 C 63.363281 16.039062 63.574219 16.066406 63.621094 16.3125 C 63.675781 16.609375 63.890625 16.644531 64.109375 16.632812 C 64.285156 16.625 64.457031 16.523438 64.636719 16.5 C 65.136719 16.425781 65.636719 16.34375 66.140625 16.320312 C 66.410156 16.308594 66.683594 16.410156 66.953125 16.460938 C 66.945312 16.484375 66.941406 16.511719 66.933594 16.535156 C 66.878906 16.554688 66.824219 16.574219 66.773438 16.59375 C 66.773438 16.625 66.777344 16.660156 66.78125 16.691406 C 67.246094 16.355469 67.71875 16.324219 68.210938 16.679688 C 68.234375 16.3125 68.171875 15.984375 68.292969 15.753906 C 68.457031 15.445312 68.484375 15.164062 68.445312 14.839844 " fill-opacity="1" fill-rule="nonzero"/></g><path fill="#ffffff" d="M 25.292969 1.726562 L 24.035156 2.320312 L 22.675781 1.753906 L 24.144531 2.753906 L 25.292969 1.726562 " fill-opacity="1" fill-rule="evenodd"/><path fill="#ffffff" d="M 20.847656 3.742188 L 19.933594 4.175781 L 18.941406 3.761719 L 20.011719 4.492188 L 20.847656 3.742188 " fill-opacity="1" fill-rule="evenodd"/><path fill="#ffffff" d="M 30.476562 3.023438 L 29.5625 3.460938 L 28.566406 3.046875 L 29.636719 3.773438 L 30.476562 3.023438 " fill-opacity="1" fill-rule="evenodd"/><path fill="#ffffff" d="M 21.816406 14.453125 C 21.429688 10.460938 19.910156 8.558594 19.894531 7.84375 C 19.878906 7.128906 20.277344 6.246094 20.507812 6.007812 C 20.519531 5.996094 21.976562 7.921875 21.816406 14.453125 " fill-opacity="1" fill-rule="evenodd"/><path fill="#ffffff" d="M 25.328125 4.070312 C 25.628906 4.089844 25.96875 4.257812 26.148438 4.472656 C 26.390625 4.765625 26.566406 5.101562 26.707031 5.449219 C 26.941406 6.015625 27.15625 6.585938 27.367188 7.160156 C 27.402344 7.246094 27.332031 7.894531 27.3125 8.128906 C 27.394531 8.082031 27.464844 8.039062 27.554688 7.988281 C 27.496094 8.652344 27.433594 9.378906 27.378906 10.019531 C 27.304688 10.035156 27.089844 9.445312 27.007812 9.183594 C 26.761719 8.402344 26.09375 5.972656 25.167969 5.871094 C 25.226562 5.257812 25.269531 4.6875 25.328125 4.070312 " fill-opacity="1" fill-rule="evenodd"/><path fill="#ffffff" d="M 28.148438 8.910156 C 28.199219 9.375 28.1875 9.839844 28.167969 10.304688 C 28.125 11.222656 28.070312 12.152344 27.949219 13.0625 C 27.875 12.167969 27.683594 10.546875 27.570312 9.941406 C 27.570312 9.941406 27.6875 8.46875 27.726562 8.027344 C 27.832031 8.019531 28.121094 8.675781 28.148438 8.910156 " fill-opacity="1" fill-rule="evenodd"/><path fill="#ffffff" d="M 24.519531 6.074219 C 24.546875 5.835938 24.6875 4.363281 24.707031 4.292969 C 24.746094 4.152344 24.894531 4.070312 25.09375 4.070312 C 25.035156 4.679688 24.972656 5.285156 24.914062 5.894531 C 24.726562 5.925781 24.617188 5.980469 24.519531 6.074219 " fill-opacity="1" fill-rule="evenodd"/><g clip-path="url(#125905f274)"><path fill="#ffffff" d="M 18.734375 16.347656 C 21.257812 15.851562 20.160156 13.75 18.847656 14.738281 C 18.972656 14.371094 19.359375 14.074219 19.726562 14.042969 C 20.847656 13.828125 21.613281 14.820312 21.632812 14.859375 C 23.183594 12.988281 25.320312 16.066406 25.703125 16.296875 C 25.722656 16.308594 18.660156 16.363281 18.734375 16.347656 " fill-opacity="1" fill-rule="evenodd"/></g><g clip-path="url(#c67b4bf64c)"><path fill="#ffffff" d="M 27.101562 13.4375 C 27.054688 13.4375 27.011719 13.398438 27.011719 13.347656 C 27.011719 13.300781 27.054688 13.257812 27.101562 13.257812 C 27.148438 13.257812 27.1875 13.300781 27.1875 13.347656 C 27.1875 13.398438 27.148438 13.4375 27.101562 13.4375 Z M 26.871094 12.988281 C 26.8125 12.988281 26.765625 12.941406 26.765625 12.882812 C 26.765625 12.824219 26.8125 12.773438 26.871094 12.773438 C 26.929688 12.773438 26.976562 12.824219 26.976562 12.882812 C 26.976562 12.941406 26.929688 12.988281 26.871094 12.988281 Z M 26.613281 12.5 C 26.53125 12.5 26.464844 12.429688 26.464844 12.347656 C 26.464844 12.261719 26.53125 12.195312 26.613281 12.195312 C 26.699219 12.195312 26.765625 12.261719 26.765625 12.347656 C 26.765625 12.429688 26.699219 12.5 26.613281 12.5 Z M 26.304688 11.921875 C 26.195312 11.921875 26.105469 11.832031 26.105469 11.71875 C 26.105469 11.605469 26.195312 11.515625 26.304688 11.515625 C 26.417969 11.515625 26.507812 11.605469 26.507812 11.71875 C 26.507812 11.832031 26.417969 11.921875 26.304688 11.921875 Z M 25.867188 11.230469 C 25.722656 11.230469 25.605469 11.113281 25.605469 10.964844 C 25.605469 10.820312 25.722656 10.703125 25.867188 10.703125 C 26.011719 10.703125 26.128906 10.820312 26.128906 10.964844 C 26.128906 11.113281 26.011719 11.230469 25.867188 11.230469 Z M 25.367188 10.464844 C 25.199219 10.464844 25.0625 10.328125 25.0625 10.15625 C 25.0625 9.984375 25.199219 9.84375 25.367188 9.84375 C 25.539062 9.84375 25.675781 9.984375 25.675781 10.15625 C 25.675781 10.328125 25.539062 10.464844 25.367188 10.464844 Z M 24.753906 9.675781 C 24.558594 9.675781 24.402344 9.519531 24.402344 9.324219 C 24.402344 9.125 24.558594 8.96875 24.753906 8.96875 C 24.945312 8.96875 25.105469 9.125 25.105469 9.324219 C 25.105469 9.519531 24.945312 9.675781 24.753906 9.675781 Z M 23.941406 8.914062 C 23.730469 8.914062 23.558594 8.738281 23.558594 8.527344 C 23.558594 8.3125 23.730469 8.136719 23.941406 8.136719 C 24.15625 8.136719 24.324219 8.3125 24.324219 8.527344 C 24.324219 8.738281 24.15625 8.914062 23.941406 8.914062 Z M 29.339844 16.347656 C 28.359375 14.824219 28.191406 12.992188 27.773438 11.265625 C 27.375 9.605469 26.015625 6.039062 25.058594 6.035156 C 24.765625 6.035156 24.476562 6.253906 24.507812 6.789062 C 25.941406 8.359375 26.894531 10.617188 27.121094 11.199219 C 27.355469 11.789062 27.570312 12.390625 27.769531 12.996094 C 27.875 13.304688 27.972656 13.613281 28.070312 13.921875 C 28.101562 14.023438 26.917969 10.6875 25.730469 8.9375 C 24.707031 7.429688 23.132812 5.886719 21.230469 5.78125 C 21.4375 6.484375 21.683594 7.160156 21.824219 7.882812 C 21.964844 8.613281 22.066406 9.359375 22.105469 10.101562 C 22.179688 11.554688 22.066406 13.027344 21.816406 14.453125 C 22.183594 13.859375 23.160156 13.941406 23.695312 14.179688 C 24.328125 14.460938 24.824219 15.054688 25.304688 15.539062 C 25.550781 15.789062 25.796875 16.023438 26.101562 16.203125 C 26.4375 16.398438 26.796875 16.347656 27.175781 16.347656 C 27.898438 16.347656 28.617188 16.347656 29.339844 16.347656 C 29.296875 16.347656 29.316406 16.308594 29.339844 16.347656 " fill-opacity="1" fill-rule="evenodd"/></g><g clip-path="url(#b881011468)"><path fill="#ffffff" d="M 46.316406 16.402344 C 43.320312 12.710938 42.507812 8.933594 43.03125 4.082031 C 43.03125 4.082031 43.125 3.789062 43.136719 3.757812 L 42.839844 3.671875 C 42.828125 3.6875 42.746094 3.847656 42.738281 3.867188 C 42.601562 4.222656 41.574219 7.253906 41.753906 10.300781 C 41.917969 12.617188 42.355469 14.550781 43.019531 16.179688 C 44.121094 16.171875 45.238281 16.160156 46.316406 16.402344 " fill-opacity="1" fill-rule="evenodd"/></g><path fill="#ffffff" d="M 42.929688 3.828125 C 41.582031 4.507812 41.039062 7.273438 40.917969 8.890625 C 40.726562 9.566406 40.859375 10.289062 40.769531 10.941406 C 40.648438 10.859375 40.546875 10.878906 40.371094 10.484375 C 36.1875 4.886719 41.488281 3.992188 42.105469 3.34375 C 39.324219 3.65625 38.414062 5 37.4375 5.398438 C 37.449219 4.328125 38.402344 2.660156 39.261719 2.179688 C 40.625 1.601562 42.480469 2.527344 43.019531 3.171875 C 44.625 2.761719 45.417969 2.507812 46.441406 3.484375 C 47.421875 4.257812 47.449219 5.53125 47.710938 6.96875 C 47.351562 6.71875 45.09375 4.164062 43.679688 3.898438 C 43.976562 4.375 48.046875 7.652344 44.855469 11.449219 C 44.761719 10.933594 44.480469 5.984375 43.1875 4.097656 C 43.09375 3.964844 42.929688 3.828125 42.929688 3.828125 " fill-opacity="1" fill-rule="evenodd"/><g clip-path="url(#a0404b0f5c)"><path fill="#ffffff" d="M 66.734375 11.363281 C 66.328125 11.378906 65.996094 11.074219 65.980469 10.671875 C 65.964844 10.285156 66.277344 9.957031 66.664062 9.941406 C 67.0625 9.929688 67.367188 10.226562 67.382812 10.644531 C 67.398438 11.011719 67.09375 11.347656 66.734375 11.363281 Z M 65.738281 8.773438 L 65.71875 8.8125 C 65.699219 8.855469 65.644531 8.871094 65.601562 8.851562 L 65.5625 8.832031 C 65.519531 8.808594 65.503906 8.753906 65.523438 8.710938 L 65.546875 8.671875 C 65.566406 8.628906 65.621094 8.613281 65.664062 8.632812 L 65.699219 8.652344 C 65.742188 8.675781 65.761719 8.730469 65.738281 8.773438 Z M 65.453125 8.578125 L 65.410156 8.660156 C 65.390625 8.699219 65.34375 8.714844 65.308594 8.695312 L 65.25 8.667969 C 65.214844 8.648438 65.199219 8.601562 65.21875 8.5625 L 65.257812 8.480469 C 65.277344 8.441406 65.324219 8.425781 65.363281 8.445312 L 65.417969 8.472656 C 65.457031 8.492188 65.472656 8.539062 65.453125 8.578125 Z M 65.128906 8.371094 L 65.085938 8.457031 C 65.0625 8.503906 65.003906 8.523438 64.953125 8.5 L 64.929688 8.488281 C 64.882812 8.464844 64.863281 8.402344 64.886719 8.355469 L 64.929688 8.269531 C 64.953125 8.222656 65.015625 8.203125 65.0625 8.226562 L 65.085938 8.238281 C 65.132812 8.265625 65.152344 8.324219 65.128906 8.371094 Z M 64.820312 8.171875 L 64.785156 8.242188 C 64.757812 8.296875 64.691406 8.316406 64.640625 8.289062 L 64.632812 8.285156 C 64.578125 8.257812 64.554688 8.191406 64.582031 8.136719 L 64.617188 8.070312 C 64.644531 8.015625 64.710938 7.992188 64.765625 8.019531 L 64.773438 8.023438 C 64.828125 8.050781 64.847656 8.117188 64.820312 8.171875 Z M 64.511719 7.960938 L 64.476562 8.039062 C 64.449219 8.089844 64.386719 8.113281 64.332031 8.085938 L 64.320312 8.078125 C 64.265625 8.050781 64.246094 7.988281 64.273438 7.933594 L 64.3125 7.859375 C 64.335938 7.804688 64.402344 7.785156 64.453125 7.8125 L 64.46875 7.816406 C 64.519531 7.84375 64.539062 7.910156 64.511719 7.960938 Z M 64.226562 7.753906 L 64.1875 7.828125 C 64.15625 7.886719 64.085938 7.910156 64.027344 7.878906 L 64.019531 7.875 C 63.964844 7.847656 63.941406 7.773438 63.96875 7.714844 L 64.007812 7.640625 C 64.035156 7.582031 64.109375 7.558594 64.164062 7.589844 L 64.171875 7.59375 C 64.230469 7.621094 64.253906 7.695312 64.226562 7.753906 Z M 63.914062 7.550781 L 63.878906 7.617188 C 63.847656 7.679688 63.777344 7.703125 63.714844 7.671875 C 63.65625 7.640625 63.632812 7.566406 63.660156 7.503906 L 63.695312 7.4375 C 63.726562 7.378906 63.800781 7.351562 63.859375 7.382812 C 63.921875 7.414062 63.945312 7.488281 63.914062 7.550781 Z M 63.148438 7.039062 L 63.078125 7.171875 C 63.046875 7.234375 62.972656 7.257812 62.914062 7.226562 L 62.863281 7.203125 C 62.804688 7.171875 62.777344 7.09375 62.808594 7.03125 L 62.875 6.898438 C 62.90625 6.835938 62.984375 6.8125 63.042969 6.84375 L 63.089844 6.867188 C 63.152344 6.898438 63.175781 6.976562 63.148438 7.039062 Z M 62.757812 6.765625 L 62.6875 6.90625 C 62.65625 6.96875 62.578125 6.992188 62.519531 6.960938 L 62.464844 6.933594 C 62.402344 6.902344 62.378906 6.824219 62.410156 6.761719 L 62.480469 6.621094 C 62.511719 6.558594 62.585938 6.535156 62.648438 6.566406 L 62.703125 6.59375 C 62.765625 6.625 62.789062 6.703125 62.757812 6.765625 Z M 62.363281 6.492188 L 62.289062 6.640625 C 62.257812 6.703125 62.183594 6.726562 62.121094 6.695312 L 62.0625 6.664062 C 62 6.632812 61.976562 6.558594 62.007812 6.496094 L 62.082031 6.347656 C 62.113281 6.285156 62.1875 6.257812 62.25 6.289062 L 62.308594 6.320312 C 62.371094 6.351562 62.394531 6.429688 62.363281 6.492188 Z M 61.964844 6.222656 L 61.886719 6.371094 C 61.859375 6.433594 61.78125 6.457031 61.722656 6.425781 L 61.660156 6.394531 C 61.601562 6.363281 61.574219 6.289062 61.605469 6.226562 L 61.679688 6.078125 C 61.710938 6.015625 61.785156 5.992188 61.847656 6.023438 L 61.910156 6.054688 C 61.96875 6.085938 61.996094 6.160156 61.964844 6.222656 Z M 59.347656 5.644531 C 59.320312 5.632812 59.296875 5.605469 59.28125 5.582031 C 59.175781 5.371094 59.070312 5.160156 58.976562 4.972656 C 59.851562 5.136719 59.894531 5.296875 60.109375 5.933594 C 59.859375 5.835938 59.601562 5.742188 59.347656 5.644531 Z M 57.863281 5.394531 C 57.957031 5.242188 58.042969 5.097656 58.136719 4.960938 C 58.199219 4.867188 58.292969 4.855469 58.398438 4.882812 C 58.742188 4.972656 58.902344 5.238281 59.046875 5.542969 C 58.648438 5.492188 58.269531 5.445312 57.863281 5.394531 Z M 58.371094 11.09375 C 58.089844 11.097656 57.859375 10.867188 57.851562 10.574219 C 57.84375 10.292969 58.070312 10.050781 58.355469 10.042969 C 58.632812 10.035156 58.878906 10.265625 58.890625 10.546875 C 58.898438 10.84375 58.667969 11.085938 58.371094 11.09375 Z M 57.597656 5.410156 C 57.503906 5.417969 57.410156 5.414062 57.304688 5.414062 C 57.433594 5.132812 57.621094 4.929688 57.945312 4.863281 C 57.84375 5.046875 57.757812 5.203125 57.667969 5.363281 C 57.65625 5.386719 57.621094 5.410156 57.597656 5.410156 Z M 56.175781 11.023438 C 55.925781 11.019531 55.730469 10.816406 55.730469 10.558594 C 55.730469 10.320312 55.9375 10.113281 56.175781 10.109375 C 56.433594 10.109375 56.632812 10.308594 56.632812 10.5625 C 56.628906 10.835938 56.441406 11.023438 56.175781 11.023438 Z M 67.703125 10.144531 C 67.648438 10.097656 67.589844 10.050781 67.515625 9.988281 C 67.75 9.96875 67.980469 9.953125 68.210938 9.933594 L 68.210938 9.105469 C 68.0625 9.109375 67.914062 9.113281 67.765625 9.117188 C 67.761719 9.101562 67.761719 9.105469 67.757812 9.085938 C 67.910156 9.023438 68.058594 8.964844 68.210938 8.902344 L 68.210938 8.378906 C 67.839844 8.460938 67.464844 8.546875 67.089844 8.628906 C 67.421875 8.222656 67.839844 7.714844 68.210938 7.273438 L 68.210938 6.464844 L 67.09375 6.765625 L 66.257812 7.796875 C 66.1875 7.914062 66.035156 7.945312 65.925781 7.867188 C 65.230469 7.394531 62.949219 5.839844 61.996094 5.28125 C 61.347656 4.902344 60.6875 4.539062 59.953125 4.347656 C 58.789062 4.042969 57.796875 4.347656 57 5.253906 C 56.867188 5.40625 56.742188 5.476562 56.554688 5.503906 C 56.125 5.566406 55.703125 5.671875 55.3125 5.871094 C 54.726562 6.167969 54.664062 6.65625 54.898438 7.179688 C 55.085938 7.597656 55.414062 7.90625 55.765625 8.183594 C 56.203125 8.527344 56.671875 8.8125 57.171875 9.046875 C 57.191406 9.054688 57.210938 9.070312 57.273438 9.105469 C 57.011719 9.195312 56.789062 9.285156 56.558594 9.347656 C 55.769531 9.566406 54.964844 9.699219 54.15625 9.796875 C 53.652344 9.859375 52.589844 9.992188 52.566406 10.027344 C 52.925781 10.046875 55.816406 10.089844 55.816406 10.089844 C 55.777344 10.140625 55.734375 10.1875 55.699219 10.238281 C 55.574219 10.4375 55.558594 10.648438 55.675781 10.855469 C 55.792969 11.070312 55.984375 11.175781 56.21875 11.15625 C 56.59375 11.125 56.953125 11.023438 57.269531 10.808594 C 57.5 10.65625 57.5 10.472656 57.265625 10.324219 C 57.101562 10.222656 56.921875 10.148438 56.726562 10.050781 C 57.144531 10.035156 57.542969 10.019531 57.964844 10.003906 C 57.9375 10.039062 57.921875 10.0625 57.902344 10.082031 C 57.667969 10.328125 57.625 10.65625 57.800781 10.929688 C 57.949219 11.15625 58.21875 11.265625 58.488281 11.238281 C 58.878906 11.195312 59.253906 11.082031 59.59375 10.863281 C 59.625 10.84375 59.675781 10.804688 59.703125 10.777344 C 59.851562 10.628906 59.867188 10.488281 59.699219 10.367188 C 59.523438 10.238281 59.3125 10.148438 59.117188 10.046875 C 59.0625 10.019531 59.003906 10.007812 58.949219 9.988281 C 58.949219 9.976562 58.949219 9.964844 58.949219 9.953125 C 59.214844 9.953125 59.484375 9.9375 59.75 9.957031 C 60.414062 10 61.078125 10.0625 61.742188 10.113281 C 62.40625 10.160156 63.070312 10.210938 63.738281 10.242188 C 64.429688 10.277344 65.125 10.269531 65.816406 10.175781 C 65.832031 10.175781 65.851562 10.175781 65.878906 10.175781 C 65.84375 10.300781 65.796875 10.417969 65.78125 10.539062 C 65.703125 11.109375 66.160156 11.605469 66.726562 11.574219 C 67.125 11.550781 67.46875 11.398438 67.75 11.109375 C 68.050781 10.796875 68.027344 10.433594 67.703125 10.144531 " fill-opacity="1" fill-rule="nonzero"/></g><g fill="#ff3131" fill-opacity="1"><g transform="translate(16.868691, 24.160685)"><g><path d="M 3.40625 -5.28125 L 3.40625 -4.09375 L 1.765625 -4.09375 L 1.765625 -3.28125 L 3.359375 -3.28125 L 3.359375 -2.09375 L 1.765625 -2.09375 L 1.765625 -1.1875 L 3.40625 -1.1875 L 3.40625 0 L 0.484375 0 L 0.484375 -5.28125 Z M 3.40625 -5.28125 "/></g></g></g><g fill="#ff3131" fill-opacity="1"><g transform="translate(20.499873, 24.160685)"><g><path d="M 1.4375 0 L 0 0 L 1.515625 -2.125 L 0.171875 -3.96875 L 1.59375 -3.96875 L 2.234375 -2.921875 L 2.875 -3.96875 L 4.28125 -3.96875 L 2.953125 -2.125 L 4.484375 0 L 3.03125 0 L 2.234375 -1.234375 Z M 1.4375 0 "/></g></g></g><g fill="#ff3131" fill-opacity="1"><g transform="translate(24.860152, 24.160685)"><g/></g></g><g fill="#ff3131" fill-opacity="1"><g transform="translate(24.860152, 24.160685)"><g><path d="M 1.546875 -3.96875 L 1.546875 -3.53125 L 1.5625 -3.53125 C 1.863281 -3.90625 2.28125 -4.09375 2.8125 -4.09375 C 3.175781 -4.09375 3.503906 -4 3.796875 -3.8125 C 4.085938 -3.625 4.316406 -3.367188 4.484375 -3.046875 C 4.648438 -2.722656 4.734375 -2.351562 4.734375 -1.9375 C 4.734375 -1.5625 4.648438 -1.210938 4.484375 -0.890625 C 4.316406 -0.578125 4.085938 -0.328125 3.796875 -0.140625 C 3.503906 0.046875 3.175781 0.140625 2.8125 0.140625 C 2.3125 0.140625 1.910156 -0.0234375 1.609375 -0.359375 L 1.609375 1.328125 L 0.421875 1.328125 L 0.421875 -3.96875 Z M 3.546875 -1.984375 C 3.546875 -2.160156 3.5 -2.328125 3.40625 -2.484375 C 3.320312 -2.640625 3.203125 -2.757812 3.046875 -2.84375 C 2.898438 -2.9375 2.734375 -2.984375 2.546875 -2.984375 C 2.367188 -2.984375 2.203125 -2.9375 2.046875 -2.84375 C 1.898438 -2.757812 1.78125 -2.640625 1.6875 -2.484375 C 1.601562 -2.328125 1.5625 -2.160156 1.5625 -1.984375 C 1.5625 -1.796875 1.601562 -1.625 1.6875 -1.46875 C 1.78125 -1.320312 1.898438 -1.203125 2.046875 -1.109375 C 2.203125 -1.015625 2.375 -0.96875 2.5625 -0.96875 C 2.738281 -0.96875 2.898438 -1.015625 3.046875 -1.109375 C 3.203125 -1.203125 3.320312 -1.320312 3.40625 -1.46875 C 3.5 -1.625 3.546875 -1.796875 3.546875 -1.984375 Z M 3.546875 -1.984375 "/></g></g></g><g fill="#ff3131" fill-opacity="1"><g transform="translate(29.699345, 24.160685)"><g><path d="M 1.609375 -5.28125 L 1.609375 0 L 0.421875 0 L 0.421875 -5.28125 Z M 1.609375 -5.28125 "/></g></g></g><g fill="#ff3131" fill-opacity="1"><g transform="translate(31.600711, 24.160685)"><g><path d="M 2.375 0.125 C 1.976562 0.125 1.617188 0.0351562 1.296875 -0.140625 C 0.972656 -0.328125 0.71875 -0.582031 0.53125 -0.90625 C 0.34375 -1.226562 0.25 -1.585938 0.25 -1.984375 C 0.25 -2.378906 0.34375 -2.738281 0.53125 -3.0625 C 0.71875 -3.382812 0.972656 -3.632812 1.296875 -3.8125 C 1.628906 -4 1.988281 -4.09375 2.375 -4.09375 C 2.769531 -4.09375 3.128906 -4 3.453125 -3.8125 C 3.785156 -3.632812 4.046875 -3.382812 4.234375 -3.0625 C 4.421875 -2.738281 4.515625 -2.382812 4.515625 -2 C 4.515625 -1.59375 4.421875 -1.226562 4.234375 -0.90625 C 4.046875 -0.582031 3.785156 -0.328125 3.453125 -0.140625 C 3.128906 0.0351562 2.769531 0.125 2.375 0.125 Z M 3.328125 -1.984375 C 3.328125 -2.160156 3.285156 -2.320312 3.203125 -2.46875 C 3.117188 -2.625 3.003906 -2.75 2.859375 -2.84375 C 2.710938 -2.9375 2.550781 -2.984375 2.375 -2.984375 C 2.195312 -2.984375 2.035156 -2.9375 1.890625 -2.84375 C 1.753906 -2.757812 1.640625 -2.640625 1.546875 -2.484375 C 1.460938 -2.328125 1.421875 -2.160156 1.421875 -1.984375 C 1.421875 -1.804688 1.460938 -1.640625 1.546875 -1.484375 C 1.628906 -1.328125 1.742188 -1.203125 1.890625 -1.109375 C 2.035156 -1.023438 2.195312 -0.984375 2.375 -0.984375 C 2.5625 -0.984375 2.722656 -1.03125 2.859375 -1.125 C 3.003906 -1.21875 3.117188 -1.335938 3.203125 -1.484375 C 3.285156 -1.640625 3.328125 -1.804688 3.328125 -1.984375 Z M 3.328125 -1.984375 "/></g></g></g><g fill="#ff3131" fill-opacity="1"><g transform="translate(36.218313, 24.160685)"><g><path d="M 1.53125 -3.96875 L 1.53125 -3.546875 L 1.546875 -3.546875 C 1.648438 -3.742188 1.78125 -3.882812 1.9375 -3.96875 C 2.101562 -4.050781 2.304688 -4.09375 2.546875 -4.09375 L 2.546875 -2.90625 C 2.203125 -2.90625 1.957031 -2.84375 1.8125 -2.71875 C 1.675781 -2.601562 1.609375 -2.425781 1.609375 -2.1875 L 1.609375 0 L 0.421875 0 L 0.421875 -3.96875 Z M 1.53125 -3.96875 "/></g></g></g><g fill="#ff3131" fill-opacity="1"><g transform="translate(38.670078, 24.160685)"><g><path d="M 2.3125 -0.875 C 2.46875 -0.875 2.601562 -0.898438 2.71875 -0.953125 C 2.832031 -1.015625 2.9375 -1.113281 3.03125 -1.25 L 4.25 -1.25 C 4.0625 -0.8125 3.796875 -0.472656 3.453125 -0.234375 C 3.109375 0.00390625 2.726562 0.125 2.3125 0.125 C 1.9375 0.125 1.585938 0.0351562 1.265625 -0.140625 C 0.941406 -0.328125 0.6875 -0.582031 0.5 -0.90625 C 0.3125 -1.226562 0.21875 -1.582031 0.21875 -1.96875 C 0.21875 -2.34375 0.304688 -2.691406 0.484375 -3.015625 C 0.671875 -3.347656 0.921875 -3.609375 1.234375 -3.796875 C 1.554688 -3.992188 1.910156 -4.09375 2.296875 -4.09375 C 2.679688 -4.09375 3.03125 -4 3.34375 -3.8125 C 3.664062 -3.625 3.921875 -3.363281 4.109375 -3.03125 C 4.296875 -2.707031 4.390625 -2.34375 4.390625 -1.9375 C 4.390625 -1.820312 4.378906 -1.71875 4.359375 -1.625 L 1.390625 -1.625 C 1.421875 -1.394531 1.519531 -1.210938 1.6875 -1.078125 C 1.863281 -0.941406 2.070312 -0.875 2.3125 -0.875 Z M 2.296875 -3.09375 C 2.078125 -3.09375 1.882812 -3.03125 1.71875 -2.90625 C 1.550781 -2.789062 1.445312 -2.628906 1.40625 -2.421875 L 3.203125 -2.421875 C 3.148438 -2.628906 3.039062 -2.789062 2.875 -2.90625 C 2.71875 -3.03125 2.523438 -3.09375 2.296875 -3.09375 Z M 2.296875 -3.09375 "/></g></g></g><g fill="#00bf63" fill-opacity="1"><g transform="translate(43.152271, 24.160685)"><g><path d="M 2.171875 -5.28125 C 2.546875 -5.28125 2.828125 -5.257812 3.015625 -5.21875 C 3.328125 -5.144531 3.585938 -4.992188 3.796875 -4.765625 C 4.003906 -4.535156 4.109375 -4.25 4.109375 -3.90625 C 4.109375 -3.675781 4.054688 -3.46875 3.953125 -3.28125 C 3.847656 -3.09375 3.695312 -2.941406 3.5 -2.828125 C 3.789062 -2.734375 4.007812 -2.582031 4.15625 -2.375 C 4.300781 -2.164062 4.375 -1.910156 4.375 -1.609375 C 4.375 -1.347656 4.316406 -1.109375 4.203125 -0.890625 C 4.097656 -0.671875 3.945312 -0.492188 3.75 -0.359375 C 3.539062 -0.210938 3.335938 -0.113281 3.140625 -0.0625 C 2.953125 -0.0195312 2.648438 0 2.234375 0 L 0.484375 0 L 0.484375 -5.28125 Z M 2.828125 -3.703125 C 2.828125 -3.835938 2.785156 -3.9375 2.703125 -4 C 2.617188 -4.0625 2.488281 -4.09375 2.3125 -4.09375 L 1.765625 -4.09375 L 1.765625 -3.28125 L 2.3125 -3.28125 C 2.65625 -3.28125 2.828125 -3.421875 2.828125 -3.703125 Z M 3.078125 -1.6875 C 3.078125 -2 2.875 -2.15625 2.46875 -2.15625 L 1.765625 -2.15625 L 1.765625 -1.1875 L 2.46875 -1.1875 C 2.65625 -1.1875 2.800781 -1.226562 2.90625 -1.3125 C 3.019531 -1.394531 3.078125 -1.519531 3.078125 -1.6875 Z M 3.078125 -1.6875 "/></g></g></g><g fill="#00bf63" fill-opacity="1"><g transform="translate(47.634063, 24.160685)"><g><path d="M 3.390625 -0.421875 C 3.304688 -0.253906 3.15625 -0.117188 2.9375 -0.015625 C 2.726562 0.0859375 2.492188 0.140625 2.234375 0.140625 C 1.847656 0.140625 1.503906 0.046875 1.203125 -0.140625 C 0.898438 -0.328125 0.664062 -0.582031 0.5 -0.90625 C 0.332031 -1.226562 0.25 -1.585938 0.25 -1.984375 C 0.25 -2.367188 0.332031 -2.722656 0.5 -3.046875 C 0.675781 -3.367188 0.914062 -3.625 1.21875 -3.8125 C 1.519531 -4 1.859375 -4.09375 2.234375 -4.09375 C 2.472656 -4.09375 2.695312 -4.046875 2.90625 -3.953125 C 3.125 -3.859375 3.285156 -3.722656 3.390625 -3.546875 L 3.40625 -3.546875 L 3.40625 -3.96875 L 4.59375 -3.96875 L 4.59375 0 L 3.40625 0 L 3.40625 -0.421875 Z M 3.40625 -1.984375 C 3.40625 -2.160156 3.359375 -2.328125 3.265625 -2.484375 C 3.179688 -2.640625 3.0625 -2.757812 2.90625 -2.84375 C 2.75 -2.9375 2.582031 -2.984375 2.40625 -2.984375 C 2.226562 -2.984375 2.0625 -2.9375 1.90625 -2.84375 C 1.757812 -2.757812 1.640625 -2.640625 1.546875 -2.484375 C 1.460938 -2.328125 1.421875 -2.15625 1.421875 -1.96875 C 1.421875 -1.789062 1.460938 -1.625 1.546875 -1.46875 C 1.640625 -1.320312 1.757812 -1.203125 1.90625 -1.109375 C 2.0625 -1.015625 2.226562 -0.96875 2.40625 -0.96875 C 2.59375 -0.96875 2.757812 -1.015625 2.90625 -1.109375 C 3.0625 -1.203125 3.179688 -1.320312 3.265625 -1.46875 C 3.359375 -1.625 3.40625 -1.796875 3.40625 -1.984375 Z M 3.40625 -1.984375 "/></g></g></g><g fill="#00bf63" fill-opacity="1"><g transform="translate(52.523291, 24.160685)"><g><path d="M 2.296875 -2.984375 C 2.054688 -2.984375 1.878906 -2.914062 1.765625 -2.78125 C 1.660156 -2.65625 1.609375 -2.457031 1.609375 -2.1875 L 1.609375 0 L 0.421875 0 L 0.421875 -3.96875 L 1.53125 -3.96875 L 1.53125 -3.546875 L 1.546875 -3.546875 C 1.671875 -3.742188 1.816406 -3.882812 1.984375 -3.96875 C 2.160156 -4.050781 2.375 -4.09375 2.625 -4.09375 C 2.882812 -4.09375 3.125 -4.039062 3.34375 -3.9375 C 3.5625 -3.832031 3.738281 -3.660156 3.875 -3.421875 C 4.019531 -3.191406 4.09375 -2.894531 4.09375 -2.53125 L 4.09375 0 L 2.90625 0 L 2.90625 -2.203125 C 2.90625 -2.472656 2.851562 -2.671875 2.75 -2.796875 C 2.65625 -2.921875 2.503906 -2.984375 2.296875 -2.984375 Z M 2.296875 -2.984375 "/></g></g></g><g fill="#00bf63" fill-opacity="1"><g transform="translate(56.897868, 24.160685)"><g><path d="M 2.234375 0.125 C 1.847656 0.125 1.503906 0.0351562 1.203125 -0.140625 C 0.898438 -0.328125 0.664062 -0.578125 0.5 -0.890625 C 0.332031 -1.203125 0.25 -1.554688 0.25 -1.953125 C 0.25 -2.359375 0.332031 -2.722656 0.5 -3.046875 C 0.675781 -3.367188 0.914062 -3.625 1.21875 -3.8125 C 1.519531 -4 1.859375 -4.09375 2.234375 -4.09375 C 2.484375 -4.09375 2.703125 -4.046875 2.890625 -3.953125 C 3.085938 -3.867188 3.234375 -3.75 3.328125 -3.59375 L 3.34375 -3.59375 L 3.34375 -3.96875 L 4.53125 -3.96875 L 4.53125 -0.421875 C 4.53125 0.117188 4.457031 0.523438 4.3125 0.796875 C 4.164062 1.078125 3.90625 1.304688 3.53125 1.484375 C 3.164062 1.671875 2.742188 1.765625 2.265625 1.765625 C 1.898438 1.765625 1.578125 1.703125 1.296875 1.578125 C 1.015625 1.453125 0.785156 1.28125 0.609375 1.0625 C 0.441406 0.851562 0.34375 0.625 0.3125 0.375 L 1.6875 0.375 C 1.800781 0.632812 2.03125 0.765625 2.375 0.765625 C 2.675781 0.765625 2.910156 0.664062 3.078125 0.46875 C 3.253906 0.28125 3.34375 0.0078125 3.34375 -0.34375 L 3.34375 -0.46875 C 3.257812 -0.28125 3.113281 -0.132812 2.90625 -0.03125 C 2.707031 0.0703125 2.484375 0.125 2.234375 0.125 Z M 3.34375 -1.96875 C 3.34375 -2.257812 3.253906 -2.5 3.078125 -2.6875 C 2.898438 -2.882812 2.664062 -2.984375 2.375 -2.984375 C 2.207031 -2.984375 2.050781 -2.9375 1.90625 -2.84375 C 1.757812 -2.757812 1.640625 -2.640625 1.546875 -2.484375 C 1.460938 -2.335938 1.421875 -2.175781 1.421875 -2 C 1.421875 -1.71875 1.507812 -1.476562 1.6875 -1.28125 C 1.863281 -1.082031 2.09375 -0.984375 2.375 -0.984375 C 2.664062 -0.984375 2.898438 -1.070312 3.078125 -1.25 C 3.253906 -1.4375 3.34375 -1.675781 3.34375 -1.96875 Z M 3.34375 -1.96875 "/></g></g></g><g fill="#00bf63" fill-opacity="1"><g transform="translate(61.708466, 24.160685)"><g><path d="M 1.609375 -5.28125 L 1.609375 0 L 0.421875 0 L 0.421875 -5.28125 Z M 1.609375 -5.28125 "/></g></g></g><g fill="#00bf63" fill-opacity="1"><g transform="translate(63.609831, 24.160685)"><g><path d="M 3.390625 -0.421875 C 3.304688 -0.253906 3.15625 -0.117188 2.9375 -0.015625 C 2.726562 0.0859375 2.492188 0.140625 2.234375 0.140625 C 1.847656 0.140625 1.503906 0.046875 1.203125 -0.140625 C 0.898438 -0.328125 0.664062 -0.582031 0.5 -0.90625 C 0.332031 -1.226562 0.25 -1.585938 0.25 -1.984375 C 0.25 -2.367188 0.332031 -2.722656 0.5 -3.046875 C 0.675781 -3.367188 0.914062 -3.625 1.21875 -3.8125 C 1.519531 -4 1.859375 -4.09375 2.234375 -4.09375 C 2.472656 -4.09375 2.695312 -4.046875 2.90625 -3.953125 C 3.125 -3.859375 3.285156 -3.722656 3.390625 -3.546875 L 3.40625 -3.546875 L 3.40625 -3.96875 L 4.59375 -3.96875 L 4.59375 0 L 3.40625 0 L 3.40625 -0.421875 Z M 3.40625 -1.984375 C 3.40625 -2.160156 3.359375 -2.328125 3.265625 -2.484375 C 3.179688 -2.640625 3.0625 -2.757812 2.90625 -2.84375 C 2.75 -2.9375 2.582031 -2.984375 2.40625 -2.984375 C 2.226562 -2.984375 2.0625 -2.9375 1.90625 -2.84375 C 1.757812 -2.757812 1.640625 -2.640625 1.546875 -2.484375 C 1.460938 -2.328125 1.421875 -2.15625 1.421875 -1.96875 C 1.421875 -1.789062 1.460938 -1.625 1.546875 -1.46875 C 1.640625 -1.320312 1.757812 -1.203125 1.90625 -1.109375 C 2.0625 -1.015625 2.226562 -0.96875 2.40625 -0.96875 C 2.59375 -0.96875 2.757812 -1.015625 2.90625 -1.109375 C 3.0625 -1.203125 3.179688 -1.320312 3.265625 -1.46875 C 3.359375 -1.625 3.40625 -1.796875 3.40625 -1.984375 Z M 3.40625 -1.984375 "/></g></g></g></svg>